<svg width="135" height="39" viewBox="0 0 135 39" fill="none" xmlns="http://www.w3.org/2000/svg">
<path d="M15.6445 25.0781L15.293 26.875L14.8828 27.3438L14.9219 28.8281C14.9219 29.1536 14.8503 29.6419 14.707 30.293C14.5638 30.957 14.4792 31.3607 14.4531 31.5039L13.8281 32.3047L13.457 31.4062C13.7044 31.4193 13.8281 31.4844 13.8281 31.6016C13.8542 31.5495 13.8672 31.263 13.8672 30.7422C13.8672 30.2214 13.7891 29.8242 13.6328 29.5508C13.4766 29.2643 13.0794 29.1211 12.4414 29.1211C12.168 29.1211 11.9401 29.2448 11.7578 29.4922C11.5885 29.7396 11.4648 29.9089 11.3867 30C11.3216 30.1042 11.2305 30.2865 11.1133 30.5469C10.9831 30.8594 10.8529 31.1654 10.7227 31.4648L10.6836 31.4062C10.1107 31.4062 9.78516 31.3542 9.70703 31.25C9.64193 31.1458 9.60938 30.7422 9.60938 30.0391L9.29688 29.6094L9.45312 30.8984C9.45312 31.5885 9.04297 31.9336 8.22266 31.9336V28.6523C7.92318 28.3398 7.57161 28.1836 7.16797 28.1836C6.76432 28.1836 6.53646 28.1966 6.48438 28.2227L6.07422 28.6523C5.8138 28.6523 5.68359 28.8997 5.68359 29.3945C5.68359 29.8763 5.70964 30.2344 5.76172 30.4688L5.05859 31.4062H4.6875L4.72656 30.6055C4.72656 28.431 4.53776 25.9049 4.16016 23.0273C3.78255 20.1497 3.5612 18.4115 3.49609 17.8125H3.92578L3.49609 17.3828C2.98828 12.513 2.73438 8.73698 2.73438 6.05469H3.14453V5.625H2.34375V4.6875C1.82292 3.60677 1.04167 2.55859 0 1.54297H0.351562L0.761719 1.09375C3.52214 0.559896 6.47135 0.292969 9.60938 0.292969C12.7604 0.292969 16.4518 0.709635 20.6836 1.54297C20.1628 1.9987 19.6354 2.74089 19.1016 3.76953C19.1016 4.70703 18.9062 5.78125 18.5156 6.99219C18.125 8.20312 17.7344 9.4401 17.3438 10.7031C16.9531 11.9531 16.7578 13.1185 16.7578 14.1992C15.9896 14.1992 14.7982 13.9714 13.1836 13.5156C11.582 13.0469 10.3906 12.8125 9.60938 12.8125V16.4648L9.29688 16.9141L9.96094 16.4648H13.1445C13.5872 16.4648 13.9453 16.6146 14.2188 16.9141H14.8828C14.8828 17.8906 14.7786 18.6523 14.5703 19.1992C14.6224 19.7201 14.6484 20.2474 14.6484 20.7812C14.6484 21.3151 14.5052 21.8424 14.2188 22.3633L13.1445 21.875H9.96094L9.29688 22.3633V25.0781L9.60938 25.4883V24.6289H12.8125C13.0599 24.6289 13.5091 24.707 14.1602 24.8633C14.8112 25.0065 15.306 25.0781 15.6445 25.0781ZM14.5508 31.2305C14.5378 30.8789 14.6289 30.6901 14.8242 30.6641H14.8828C14.8828 30.7292 14.8307 30.8203 14.7266 30.9375C14.6224 31.0547 14.5638 31.1523 14.5508 31.2305ZM14.5117 31.4062L14.4727 31.4258L14.5117 31.4062ZM39.7648 31.2109C39.5175 30.9115 39.0422 30.7617 38.3391 30.7617L37.968 30.2734H36.9133L36.5813 30.7617H35.4875C35.4875 28.431 35.1359 26.3151 34.4328 24.4141V26.1719C33.9641 26.1719 33.7297 27.1875 33.7297 29.2188C33.7297 29.7396 33.7427 30.0911 33.7688 30.2734C33.8078 30.4557 33.9185 30.7682 34.1008 31.2109L33.3977 30.2734H33.0461V30.8594L32.3625 30.7617L31.9719 31.2109H31.6594L31.2883 30.7617L30.5852 31.6602H30.2336V32.1484H29.9016V31.2109L29.5109 31.6602L29.1594 31.2109V30.2734L29.9016 28.9258C29.9406 28.4049 30.1164 27.8385 30.4289 27.2266L30.2336 27.1484V26.6797C30.6112 26.1849 30.8456 25.0911 30.9367 23.3984C30.9758 22.8255 31.093 22.4154 31.2883 22.168H30.9367L31.2883 21.7383V20.8203L31.9719 19.4531C31.9719 19.1146 31.8612 18.8021 31.6398 18.5156C31.4185 18.2161 31.3013 17.9818 31.2883 17.8125L31.2102 17.8516L30.9367 17.6172H31.2883C30.8586 15.599 30.6242 14.4727 30.5852 14.2383L30.9367 14.9219V14.043L30.5852 10.8398C30.4029 10.5404 30.1164 9.89583 29.7258 8.90625C29.3352 7.90365 28.9185 7.20052 28.4758 6.79688C28.4497 6.01562 28.0721 5.28646 27.343 4.60938C26.718 4.01042 26.093 3.49609 25.468 3.06641C24.856 2.63672 24.4654 2.35677 24.2961 2.22656H23.8859C23.1307 2.22656 22.6229 2.08984 22.3625 1.81641C23.0786 1.81641 24.1138 1.66667 25.468 1.36719C26.8221 1.05469 27.8247 0.898438 28.4758 0.898438V0.46875L30.2336 0.527344C31.0669 0.592448 31.6464 0.416667 31.9719 0V0.46875H31.718L32.675 0.898438L33.0461 0.46875V0.898438L34.4328 2.22656H33.7492V3.16406C33.9836 3.45052 34.1008 3.85417 34.1008 4.375V4.98047C34.4914 5.65755 34.7453 6.22396 34.8625 6.67969C35.0578 6.28906 35.3898 5.42318 35.8586 4.08203C36.3404 2.72786 36.5813 1.84245 36.5813 1.42578V1.36719H36.2102V0.898438H35.8586V0.46875L36.2102 0.234375V0.46875C37.1997 0.46875 39.0487 0.735677 41.757 1.26953C44.4784 1.79036 46.0734 2.27214 46.5422 2.71484H46.8352C43.2675 3.73047 41.0214 5.3776 40.0969 7.65625H40.468V8.16406L40.0969 7.65625C39.7193 8.52865 39.4393 9.59635 39.257 10.8594C39.0878 12.1224 38.899 13.3529 38.6906 14.5508C38.4823 15.7357 38.1372 16.7578 37.6555 17.6172L37.968 18.0859V19.0039H37.6555V19.4531C37.7206 19.388 37.7857 19.3555 37.8508 19.3555C37.9289 19.3555 37.968 19.4661 37.968 19.6875C37.968 19.8958 37.9289 20 37.8508 20C37.7857 20 37.7206 19.9544 37.6555 19.8633C37.6555 20.4232 37.7661 21.2435 37.9875 22.3242C38.2219 23.3919 38.3391 24.1602 38.3391 24.6289V24.8438C38.8859 25.5599 39.3286 26.8359 39.6672 28.6719C40.0057 30.5078 40.2727 31.6667 40.468 32.1484H40.0969L39.7648 31.6602V31.2109ZM53.1234 32.2266L53.4164 32.4219V32.5977C52.9216 32.4544 52.6742 32.3112 52.6742 32.168V26.3281C52.9086 26.0156 53.0388 25.4232 53.0648 24.5508C53.0909 23.6784 53.2081 23.0534 53.4164 22.6758L53.0258 22.207V21.7578L52.6742 21.3477L53.0258 20.8984L52.6742 20.4102V14.9805C52.531 14.7982 52.4333 14.5182 52.3813 14.1406C52.3292 13.75 52.2706 13.418 52.2055 13.1445C52.1534 12.8711 52.0362 12.7344 51.8539 12.7344V9.29688C51.8539 8.28125 51.8279 7.51953 51.7758 7.01172C51.7237 6.49089 51.5414 5.94401 51.2289 5.37109C50.9294 4.78516 50.5648 4.27083 50.1352 3.82812C49.7055 3.3724 49.0089 2.70833 48.0453 1.83594L48.3773 1.40625L47.9477 1.81641L47.5961 1.40625L51.8539 0.527344C52.1534 0.826823 52.531 0.976562 52.9867 0.976562L53.3383 0.527344H57.9281C58.1625 0.852865 58.4685 1.01562 58.8461 1.01562C59.2367 1.01562 59.6404 0.852865 60.057 0.527344V1.40625L60.7406 0.527344C61.2484 0.61849 62.0167 0.716146 63.0453 0.820312C65.324 1.06771 67.0688 1.40625 68.2797 1.83594C67.6807 1.83594 67.1599 2.36979 66.7172 3.4375C66.2745 4.49219 65.949 5.78776 65.7406 7.32422C65.35 10.2018 65.1547 12.5977 65.1547 14.5117H65.5453V15.4102C65.1547 15.319 64.5102 15.0781 63.6117 14.6875C62.7263 14.2839 62.0167 14.082 61.4828 14.082V13.6328C61.1313 13.6328 60.9555 13.6914 60.9555 13.8086C60.9555 13.9128 60.9945 14.0039 61.0727 14.082C60.9555 14.1081 60.5648 14.1211 59.9008 14.1211C59.2367 14.1211 58.6898 13.9583 58.2602 13.6328C58.5206 13.9844 58.6508 14.5638 58.6508 15.3711C58.6508 15.4492 58.7484 15.5534 58.9438 15.6836C59.1521 15.8008 59.2497 15.8789 59.2367 15.918L58.8852 16.3477H64.1781L64.4516 16.7773L64.1781 17.2656V19.9609H63.8461C64.0675 20.3776 64.1781 20.7943 64.1781 21.2109C64.1781 21.6276 64.1521 21.901 64.1 22.0312C64.0609 22.1484 64.0089 22.2786 63.9438 22.4219C63.8917 22.5521 63.8591 22.6367 63.8461 22.6758C63.5336 22.0247 62.7979 21.6992 61.6391 21.6992C61.5089 21.6992 61.1898 21.7188 60.682 21.7578C60.7341 21.7057 60.7602 21.6276 60.7602 21.5234C60.7602 21.4193 60.669 21.3672 60.4867 21.3672C60.3044 21.3672 60.2133 21.4193 60.2133 21.5234C60.2133 21.6146 60.2263 21.6732 60.2523 21.6992L59.9398 21.3477V21.7578H59.2367V21.3477C59.0023 21.6602 58.8852 22.168 58.8852 22.8711V23.5742H58.5141L58.8852 24.0234L59.2367 30.3711V32.0703L58.8852 32.5V32.0703L58.5141 31.6016C58.7615 31.1589 58.8852 30.8659 58.8852 30.7227V30.5664C58.8852 30.4362 58.3708 30.3711 57.3422 30.3711C57.0297 30.5404 56.8734 31.0612 56.8734 31.9336C56.8734 32.0768 56.893 32.2656 56.932 32.5C56.9841 32.7344 57.0102 32.9167 57.0102 33.0469C56.9971 33.0339 56.8409 33.0078 56.5414 32.9688V32.5391L56.1508 32.0703V31.2695L54.6078 29.9219C53.6182 29.9219 53.1234 30.6901 53.1234 32.2266ZM48.0453 1.83594H47.9477V1.81641L48.0453 1.83594ZM86.4234 31.5039L86.7945 30.4688L86.5602 30.2734H86.0523C86.0523 30.2995 85.9091 30.3516 85.6227 30.4297C85.3492 29.8438 85.2125 29.2513 85.2125 28.6523C85.2125 28.0404 85.2255 27.5846 85.2516 27.2852L84.9 26.6797L84.9977 25.2148L85.0953 25.4102L85.1539 25.2734L84.9 24.8438V24.4141L84.5484 23.9453L84.5875 23.4961C84.5875 23.2357 84.5354 22.9232 84.4312 22.5586C84.1578 22.5586 83.8258 22.6367 83.4352 22.793C83.0575 22.9362 82.8297 23.0208 82.7516 23.0469V22.5977L82.4391 23.0469H82.5953L82.7516 24.4141L82.3414 25.1758L82.7516 25.2734C82.7516 26.0807 82.8102 27.2526 82.9273 28.7891C83.0575 30.3125 83.1227 31.4714 83.1227 32.2656L82.8297 31.6992L82.7906 31.6016L82.8297 31.6602C82.8297 31.0742 82.7255 30.625 82.5172 30.3125C82.3219 30.013 81.9378 29.8633 81.3648 29.8633C80.8831 30.4622 80.6422 31.2109 80.6422 32.1094C81.0719 31.7188 81.3128 31.4518 81.3648 31.3086V31.8555L81.0133 32.3047C80.5445 32.3047 80.2841 32.1029 80.232 31.6992C80.232 31.7513 80.245 31.8229 80.2711 31.9141C80.2971 32.0052 80.3102 32.0703 80.3102 32.1094C80.206 31.9661 80.1148 31.7318 80.0367 31.4062C79.9586 31.0807 79.8609 30.8073 79.7437 30.5859C79.6266 30.3776 79.4508 30.2734 79.2164 30.2734C78.7997 30.2734 78.5914 30.5208 78.5914 31.0156C78.6044 30.9245 78.65 30.8333 78.7281 30.7422C78.8062 30.651 78.8648 30.6055 78.9039 30.6055L78.5523 31.4648C78.4872 31.2695 78.3896 31.0417 78.2594 30.7812C77.9729 30.2344 77.8297 29.7331 77.8297 29.2773C77.8297 27.1029 77.6018 25.4818 77.1461 24.4141H77.4781L77.1266 20.7422L77.1461 20.293H76.7555L76.4039 18.5156L76.7555 18.0664C76.7555 17.7279 76.5992 17.5586 76.2867 17.5586L76.0328 17.6172L76.0719 16.6992C76.2932 16.5299 76.4039 16.224 76.4039 15.7812H75.7008L75.3102 8.10547C74.9716 7.72786 74.7047 7.20703 74.5094 6.54297C74.3141 5.86589 74.0992 5.38411 73.8648 5.09766C73.6305 4.79818 73.331 4.60286 72.9664 4.51172C72.9664 3.86068 72.6344 3.38542 71.9703 3.08594C71.3193 2.77344 70.9937 2.35026 70.9937 1.81641C71.5797 1.81641 72.426 1.66016 73.5328 1.34766C74.6526 1.02214 75.499 0.859375 76.0719 0.859375L76.7555 1.32812C77.2503 0.729167 77.7971 0.384115 78.3961 0.292969C79.2034 0.188802 79.9716 0.136719 80.7008 0.136719C83.1617 0.136719 84.8023 0.351562 85.6227 0.78125L86.2281 0.371094L87.2047 0.429688C87.3609 0.638021 87.8297 0.957031 88.6109 1.38672C89.4052 1.81641 89.9651 2.08984 90.2906 2.20703C90.6161 2.3112 91.0263 2.64974 91.5211 3.22266C92.0159 3.79557 92.4 4.08203 92.6734 4.08203C93.0641 4.47266 93.2594 5.63151 93.2594 7.55859C93.2594 9.47266 93.0641 12.2135 92.6734 15.7812C92.6474 16.0286 92.4065 16.6927 91.9508 17.7734C91.495 18.8542 91.2672 19.5768 91.2672 19.9414C91.2672 20.306 91.3128 20.5599 91.4039 20.7031L91.0914 20.7617C90.9612 20.918 90.7529 21.0352 90.4664 21.1133C90.193 21.1914 89.9716 21.3021 89.8023 21.4453C89.6331 21.5755 89.5484 21.8164 89.5484 22.168C90.1995 22.9232 90.5706 23.9714 90.6617 25.3125C90.7008 25.7812 90.7203 26.3867 90.7203 27.1289L90.2711 27.4219L90.3297 27.9883C90.9026 28.7305 91.1891 29.7331 91.1891 30.9961L90.5055 32.1484L90.3297 32.1094L89.5484 31.2109V31.6211C88.8193 31.6211 88.4091 31.4844 88.318 31.2109C88.1878 30.8073 87.9469 30.4948 87.5953 30.2734L87.6734 31.0938C87.6734 31.2109 87.6018 31.3737 87.4586 31.582C87.3154 31.8034 87.2307 31.9401 87.2047 31.9922L86.4234 31.5039ZM82.8297 17.4219C82.9599 17.487 83.1357 17.5456 83.357 17.5977C83.5914 17.6497 83.9625 17.6823 84.4703 17.6953C84.9911 17.7083 85.2385 17.5391 85.2125 17.1875H85.6227C85.6227 16.8359 85.7659 16.5234 86.0523 16.25V14.8828C86.1565 14.8828 86.2411 14.8372 86.3062 14.7461C86.3844 14.6419 86.4234 14.5378 86.4234 14.4336C86.4234 14.3164 86.3583 14.1732 86.2281 14.0039C86.1109 13.8216 86.0523 13.6654 86.0523 13.5352L84.5484 12.1875H83.1227L82.7516 12.6172L82.4391 12.1875V12.6172H82.068L82.4391 13.1055V14.8828C82.1917 14.8828 82.068 15.0391 82.068 15.3516H82.4391C82.4391 15.4297 82.4391 15.599 82.4391 15.8594C82.4391 16.1068 82.4391 16.3086 82.4391 16.4648C82.4521 16.6211 82.4846 16.8034 82.5367 17.0117C82.6018 17.207 82.6995 17.3438 82.8297 17.4219ZM85.2125 18.0664L84.9 17.6172V18.0664H85.2125ZM83.1227 32.2656C83.1487 32.2917 83.1617 32.3177 83.1617 32.3438C83.1617 32.3698 83.1487 32.3958 83.1227 32.4219V32.2656ZM82.7906 31.6016C82.7646 31.6016 82.7516 31.569 82.7516 31.5039L82.7906 31.6016ZM106.774 35.2734C107.048 34.9609 107.184 34.6549 107.184 34.3555V33.5938L107.555 32.9688L107.184 32.5586L106.774 33.1445L106.442 31.6016C105.973 32.0312 105.707 32.3047 105.641 32.4219C105.589 32.5391 105.537 32.7279 105.485 32.9883C105.433 33.2487 105.348 33.5482 105.231 33.8867L105.173 32.5586C105.173 32.1289 105.316 31.6602 105.602 31.1523L105.231 30.7227L105.641 29.4727C105.641 29.1862 105.433 28.8021 105.016 28.3203C104.613 27.8255 104.268 27.5781 103.981 27.5781L103.415 27.9883H103.688L103.805 28.457H103.649L103.415 30.2734C103.259 30.2734 103.135 30.2018 103.044 30.0586C102.953 29.9284 102.816 29.8633 102.634 29.8633V35.0781C102.347 34.362 102.204 33.2878 102.204 31.8555C102.165 32.2721 102.061 32.5586 101.891 32.7148C101.722 32.8841 101.449 32.9688 101.071 32.9688V32.1094L100.641 31.6211L100.29 32.1094L100.72 33.3594L100.641 33.3984L100.446 35.3125L100.29 35.2734C99.743 34.2839 99.4695 32.7148 99.4695 30.5664V28.8281C99.4695 28.4375 99.3589 27.7539 99.1375 26.7773C98.9161 25.8008 98.8055 25.1237 98.8055 24.7461C98.8055 24.3685 98.8575 24.0039 98.9617 23.6523C99.0659 23.3008 99.2091 23.099 99.3914 23.0469H99.0789L99.5477 21.9922L99.0398 20.7422L99.0789 19.4141H99.4695L99.0789 18.9648L99.4695 16.6992L99.0789 16.25C99.3654 15.9635 99.5086 15.5078 99.5086 14.8828L99.0789 10.8008L99.4695 9.02344L99.0789 4.51172H99.4695V4.02344C99.2872 4.02344 99.0073 3.88672 98.6297 3.61328C98.2651 3.32682 97.9721 3.16406 97.7508 3.125H97.9461C97.5034 2.63021 96.7221 2.18099 95.6023 1.77734C96.4096 1.16536 99.5151 0.859375 104.919 0.859375C107.536 0.859375 110.498 1.16536 113.805 1.77734C111.97 2.81901 110.876 4.24479 110.524 6.05469C110.355 6.92708 110.251 7.77344 110.212 8.59375C110.068 11.5625 109.893 13.4961 109.684 14.3945L109.86 14.043C109.847 14.3164 109.789 14.8698 109.684 15.7031C109.58 16.5365 109.528 17.1745 109.528 17.6172C109.528 17.5911 109.58 17.3698 109.684 16.9531C109.802 16.5234 109.86 16.1979 109.86 15.9766V17.2266C109.86 17.2266 109.789 17.819 109.645 19.0039C109.645 19.3294 109.717 19.7591 109.86 20.293V19.1602L109.938 20.293C109.938 20.4102 109.802 20.8789 109.528 21.6992C109.749 22.194 109.86 22.6758 109.86 23.1445C109.86 23.6003 109.789 24.1471 109.645 24.7852C109.515 25.4232 109.45 25.8919 109.45 26.1914C109.45 26.4909 109.326 27.0052 109.079 27.7344C108.832 28.4635 108.708 29.0039 108.708 29.3555H109.098C108.864 29.9023 108.675 30.7227 108.532 31.8164C108.402 32.9102 108.272 33.8216 108.141 34.5508C108.024 35.293 107.829 35.6641 107.555 35.6641V36.1523L107.223 36.1914L106.774 35.4688V35.2734ZM105.231 15.7812L105.075 15.8203C104.919 15.8203 104.841 15.3971 104.841 14.5508V13.8477C104.789 14.4206 104.6 15.319 104.274 16.543C103.962 17.7669 103.805 18.724 103.805 19.4141L103.415 19.3945V19.8633H103.805C103.805 20.0456 103.682 20.4362 103.434 21.0352C103.2 21.6341 103.063 21.9987 103.024 22.1289H104.489C105.114 22.1289 105.479 22.207 105.583 22.3633C105.557 22.0508 105.511 21.6016 105.446 21.0156C105.303 19.7266 105.231 18.7435 105.231 18.0664H105.29C105.212 18.0404 105.173 17.8385 105.173 17.4609C105.173 17.0703 105.192 16.8164 105.231 16.6992L104.841 16.25L105.231 16.1328V15.7812ZM106.364 36.1523C106.012 36.8815 105.882 37.6237 105.973 38.3789H105.602V37.5195C105.602 37.2201 105.72 36.7643 105.954 36.1523C106.188 35.5534 106.325 35.1367 106.364 34.9023V36.1523ZM109.528 14.6875V14.8828H109.704C109.652 14.8828 109.593 14.8177 109.528 14.6875ZM105.231 29.4727V29.3555H105.29C105.251 29.3555 105.231 29.3945 105.231 29.4727ZM133.707 16.4258L134.117 17.9688H133.238C129.371 17.9688 127.411 17.5456 127.359 16.6992L127.203 16.9727C127.281 16.7773 127.32 16.543 127.32 16.2695C127.32 15.9961 127.21 15.651 126.988 15.2344L127.359 14.8047H126.988L126.637 14.3164V13.7109L126.266 13.8867C126.201 13.2747 125.868 12.9688 125.27 12.9688C124.671 12.9688 124.28 13.1445 124.098 13.4961C123.915 13.8477 123.824 14.4076 123.824 15.1758L123.746 15.1172C123.837 15.2995 123.883 15.5208 123.883 15.7812L123.824 16.5234C123.798 16.6406 123.727 16.849 123.609 17.1484C123.505 17.4349 123.453 17.7083 123.453 17.9688L123.824 18.4375L123.453 19.2969C123.661 19.7656 123.831 20.5273 123.961 21.582C124.091 22.6367 124.28 23.3919 124.527 23.8477H124.156V24.2578C124.586 24.2578 124.801 24.4206 124.801 24.7461H124.723C124.592 24.7461 124.527 24.9023 124.527 25.2148L125.543 26.4062L126.266 26.1133V26.4844L126.637 26.5234C126.637 26.1849 127.027 25.8594 127.809 25.5469C128.121 25.4297 128.323 25.319 128.414 25.2148L128.023 24.7461C128.284 24.069 128.414 23.6523 128.414 23.4961V23.3984H128.023C127.333 23.3984 126.747 23.6849 126.266 24.2578C126.266 23.6198 126.207 22.6628 126.09 21.3867C125.986 20.0977 125.934 19.1146 125.934 18.4375C126.441 19.1406 127.177 19.4922 128.141 19.4922L130.562 19.2969C132.138 19.2969 133.199 19.6029 133.746 20.2148V22.3047C133.746 25.1042 133.486 27.1745 132.965 28.5156C132.457 29.7917 131.669 30.6185 130.602 30.9961C130.536 31.1133 130.426 31.1914 130.27 31.2305C129.957 31.3086 129.801 31.7057 129.801 32.4219C129.801 32.6172 129.566 32.7669 129.098 32.8711L128.746 32.3633L129.098 32.4219L128.375 30.957C127.919 31.1523 127.62 31.3542 127.477 31.5625C127.333 31.7839 127.262 31.9922 127.262 32.1875C127.262 32.3958 127.268 32.5456 127.281 32.6367C127.307 32.7409 127.32 32.832 127.32 32.9102C127.32 32.5846 127.092 32.4219 126.637 32.4219C126.441 32.4219 126.305 32.2786 126.227 31.9922L126.344 31.8164C126.344 31.6081 126.201 31.2891 125.914 30.8594C125.641 30.4297 125.406 30.0586 125.211 29.7461C125.016 29.4466 124.905 29.2839 124.879 29.2578C124.905 29.401 124.918 29.7461 124.918 30.293C124.918 30.8529 124.827 31.6016 124.645 32.5391C124.436 32.3568 124.247 32.0117 124.078 31.5039C123.909 31.0091 123.824 30.5599 123.824 30.1562L123.453 30.625H123.102L123.18 30.6641L122.75 31.5039C122.75 31.6602 122.932 31.888 123.297 32.1875C123.674 32.5 123.863 32.7669 123.863 32.9883C123.863 33.2096 123.831 33.3984 123.766 33.5547C123.701 33.7109 123.57 33.7826 123.375 33.7695L122.75 33.7305L122.398 31.0547C122.125 31.0547 121.878 30.931 121.656 30.6836C121.435 30.4492 121.272 30.2734 121.168 30.1562C121.077 30.0391 120.953 29.8698 120.797 29.6484C120.654 29.4271 120.562 29.2969 120.523 29.2578L120.426 29.3164C119.163 26.3346 118.531 23.4635 118.531 20.7031C118.531 20.0391 118.264 18.0794 117.73 14.8242C117.21 11.556 116.949 9.05599 116.949 7.32422C116.949 6.63411 117.099 6.10026 117.398 5.72266L117.496 5.95703L117.574 5.85938L117.398 4.375C117.62 3.84115 117.997 3.2487 118.531 2.59766L119.371 3.02734L119.625 2.59766L119.371 2.10938C119.931 2.10938 120.712 1.81641 121.715 1.23047C122.717 0.63151 123.531 0.332031 124.156 0.332031V0.742188C124.286 0.742188 124.391 0.677083 124.469 0.546875C124.547 0.403646 124.684 0.332031 124.879 0.332031L124.527 1.21094C124.983 0.807292 125.211 0.514323 125.211 0.332031C126.604 0.332031 128.108 0.709635 129.723 1.46484C131.337 2.22005 132.678 3.1901 133.746 4.375H133.297L133.746 5.37109V5.29297C134.41 6.04818 134.742 7.2526 134.742 8.90625C134.742 9.47917 134.566 10.6055 134.215 12.2852C133.876 13.9648 133.707 15.3451 133.707 16.4258ZM124.527 25.2148L124.879 24.7461C124.879 25.0586 124.762 25.2148 124.527 25.2148ZM124.879 24.7461H124.801L124.879 24.4336V24.7461ZM127.203 16.9727C127.138 17.1029 127.086 17.1875 127.047 17.2266L127.203 16.9727ZM127.027 17.2656L126.988 17.3242L127.027 17.2656Z" fill="black"/>
</svg>
