<svg width="243" height="54" viewBox="0 0 243 54" fill="none" xmlns="http://www.w3.org/2000/svg">
<path d="M210.956 42.5005C210.396 42.5005 210.156 42.2204 210.236 41.6604L216.476 2.36045C216.556 1.80045 216.836 1.52045 217.316 1.52045H225.056C225.656 1.52045 225.916 1.80045 225.836 2.36045L223.616 16.2804C223.416 17.5604 223.196 18.8804 222.956 20.2404C222.716 21.5604 222.436 22.9004 222.116 24.2604H222.356C223.076 23.2604 223.836 22.2804 224.636 21.3204C225.436 20.3204 226.216 19.3804 226.976 18.5004L231.656 13.3404C232.016 12.9004 232.416 12.6804 232.856 12.6804H242.276C242.556 12.6804 242.736 12.8004 242.816 13.0404C242.896 13.2404 242.836 13.4604 242.636 13.7004L231.176 25.8204L238.976 41.6004C239.096 41.8405 239.096 42.0604 238.976 42.2604C238.856 42.4204 238.676 42.5005 238.436 42.5005H229.556C229.116 42.5005 228.776 42.2405 228.536 41.7205L223.916 31.7604L220.676 35.0005L219.656 41.6604C219.616 41.9004 219.536 42.1004 219.416 42.2604C219.296 42.4204 219.076 42.5005 218.756 42.5005H210.956Z" fill="#FC9EAC"/>
<path d="M195.789 42.5004C195.189 42.5004 194.929 42.2204 195.009 41.6604L197.769 24.1404C198.209 21.5004 197.369 20.1804 195.249 20.1804C194.529 20.1804 193.789 20.3204 193.029 20.6004C192.309 20.8404 191.549 21.2404 190.749 21.8004C189.949 22.3204 189.129 23.0004 188.289 23.8404L188.529 17.9004C190.609 15.8604 192.609 14.3604 194.529 13.4004C196.489 12.4404 198.529 11.9604 200.649 11.9604C203.489 11.9604 205.469 12.8204 206.589 14.5404C207.749 16.2604 208.049 18.8204 207.489 22.2204L204.429 41.6604C204.309 42.2204 204.029 42.5004 203.589 42.5004H195.789ZM177.909 42.5004C177.349 42.5004 177.109 42.2204 177.189 41.6604L180.549 20.4204C180.749 19.1404 180.909 17.9204 181.029 16.7604C181.149 15.5604 181.249 14.4804 181.329 13.5204C181.329 12.9604 181.609 12.6804 182.169 12.6804H188.829C189.349 12.6804 189.629 12.9404 189.669 13.4604C189.709 13.8604 189.729 14.3204 189.729 14.8404C189.729 15.3604 189.709 15.9004 189.669 16.4604C189.669 17.0204 189.629 17.5804 189.549 18.1404L189.789 21.5004L186.609 41.6604C186.569 41.9004 186.489 42.1004 186.369 42.2604C186.249 42.4204 186.029 42.5004 185.709 42.5004H177.909Z" fill="#FC9EAC"/>
<path d="M162.733 42.5004C162.173 42.5004 161.933 42.2204 162.013 41.6604L166.453 13.4604C166.573 12.9404 166.873 12.6804 167.353 12.6804H175.093C175.693 12.6804 175.953 12.9404 175.873 13.4604L171.433 41.6604C171.313 42.2204 171.013 42.5004 170.533 42.5004H162.733ZM172.153 9.26036C171 8.55073 170.787 8.05069 170 7.05071C169.213 6.05072 169.713 6.76248 168.5 5.05071L168 3.55071C167.5 1.55071 168.5 0.550707 169.213 0.140354C172 -0.449293 171.973 0.907938 173 2.55072C174 0.55072 174.5 0.140354 176.5 0.140356C177.673 0.38772 178.327 2.10106 177.5 3.55071L177.18 4.50044C176.5 6.0507 176.5 5.5507 175.873 6.5005C174.993 7.3005 173.5 8.55073 172.153 9.26036Z" fill="#FC9EAC"/>
<path d="M146.703 43.2204C145.183 43.2204 143.643 43.0404 142.083 42.6804C140.563 42.3204 139.323 41.8404 138.363 41.2404L139.383 33.9804C140.063 34.4204 140.883 34.7804 141.843 35.0604C142.803 35.3404 143.723 35.4804 144.603 35.4804C145.883 35.4804 146.903 35.0804 147.663 34.2804C148.423 33.4404 148.923 32.1804 149.163 30.5004L150.063 24.4404C150.303 22.9604 150.203 21.8804 149.763 21.2004C149.363 20.5204 148.603 20.1804 147.483 20.1804C146.523 20.1804 145.483 20.4804 144.363 21.0804C143.283 21.6404 142.063 22.5204 140.703 23.7204L140.943 17.7204C143.223 15.6804 145.263 14.2204 147.063 13.3404C148.863 12.4204 150.763 11.9604 152.763 11.9604C155.683 11.9604 157.723 12.8204 158.883 14.5404C160.043 16.2204 160.363 18.7804 159.843 22.2204L158.403 31.2804C157.763 35.2404 156.463 38.2204 154.503 40.2204C152.583 42.2204 149.983 43.2204 146.703 43.2204ZM128.943 53.6004C128.343 53.6004 128.083 53.3204 128.163 52.7604L133.323 20.3004C133.523 19.0604 133.683 17.8804 133.803 16.7604C133.923 15.6004 134.023 14.5204 134.103 13.5204C134.103 12.9604 134.383 12.6804 134.943 12.6804H141.603C142.123 12.6804 142.403 12.9404 142.443 13.4604C142.483 13.8604 142.503 14.3004 142.503 14.7804C142.503 15.2604 142.483 15.7604 142.443 16.2804C142.443 16.7604 142.403 17.2404 142.323 17.7204L142.563 21.5604L137.583 52.7604C137.503 53.3204 137.223 53.6004 136.743 53.6004H128.943Z" fill="#FC9EAC"/>
<path d="M102.272 53.6006C101.632 53.6006 101.452 53.3206 101.732 52.7606L107.072 42.3806L101.132 13.5206C101.012 12.9606 101.272 12.6806 101.912 12.6806H110.192C110.712 12.6806 110.992 12.9406 111.032 13.4606L112.232 22.6406C112.392 24.0006 112.532 25.4006 112.652 26.8406C112.772 28.2806 112.872 29.8006 112.952 31.4006H113.132C113.692 29.8006 114.252 28.3006 114.812 26.9006C115.372 25.5006 115.932 24.1206 116.492 22.7606L120.692 13.4606C120.772 13.2206 120.892 13.0406 121.052 12.9206C121.212 12.7606 121.432 12.6806 121.712 12.6806H130.292C130.532 12.6806 130.712 12.7606 130.832 12.9206C130.992 13.0806 131.012 13.2806 130.892 13.5206L110.912 52.7606C110.632 53.3206 110.252 53.6006 109.772 53.6006H102.272Z" fill="#FC9EAC"/>
<path d="M81.0642 43.2205C79.3042 43.2205 77.6842 43.1204 76.2042 42.9204C74.7242 42.7204 73.2642 42.5205 71.8242 42.3204C70.4242 42.0804 68.9242 41.9004 67.3242 41.7804L73.5642 2.36045C73.6442 1.80045 73.9642 1.52045 74.5242 1.52045H82.2642C82.7842 1.52045 83.0042 1.80045 82.9242 2.36045L77.7642 35.0604C78.3242 35.1404 78.9242 35.2405 79.5642 35.3605C80.2042 35.4404 80.8642 35.4804 81.5442 35.4804C82.9842 35.4804 84.1042 35.0804 84.9042 34.2804C85.7442 33.4404 86.3042 32.1204 86.5842 30.3204L87.4842 24.3204C87.7242 22.8404 87.6042 21.7804 87.1242 21.1404C86.6842 20.5004 85.9642 20.1804 84.9642 20.1804C84.0442 20.1804 83.0642 20.4204 82.0242 20.9004C81.0242 21.3804 79.9042 22.1204 78.6642 23.1204L79.9242 16.4004C81.6442 14.9204 83.3442 13.8204 85.0242 13.1004C86.7442 12.3404 88.5242 11.9604 90.3642 11.9604C93.0442 11.9604 95.0042 12.7804 96.2442 14.4204C97.4842 16.0604 97.8242 18.6204 97.2642 22.1004L95.8242 31.0404C95.3842 33.8004 94.5842 36.0804 93.4242 37.8804C92.3042 39.6804 90.7242 41.0205 88.6842 41.9005C86.6842 42.7805 84.1442 43.2205 81.0642 43.2205Z" fill="#FC9EAC"/>
<path d="M42.598 43.2204C40.678 43.2204 39.178 42.8004 38.098 41.9604C37.018 41.1204 36.298 39.9204 35.938 38.3604C35.578 36.7604 35.578 34.8404 35.938 32.6004L37.318 23.9604C37.998 19.7604 39.478 16.7204 41.758 14.8404C44.038 12.9204 47.418 11.9604 51.898 11.9604C54.618 11.9604 57.078 12.1404 59.278 12.5004C61.478 12.8604 63.758 13.1204 66.118 13.2804L62.698 34.7604C62.498 36.0404 62.338 37.2604 62.218 38.4204C62.098 39.5404 61.998 40.6204 61.918 41.6604C61.878 42.2204 61.598 42.5004 61.078 42.5004H54.478C53.958 42.5004 53.678 42.2204 53.638 41.6604C53.598 41.1404 53.578 40.6004 53.578 40.0404C53.578 39.4404 53.598 38.8404 53.638 38.2404C51.958 39.8404 50.138 41.0804 48.178 41.9604C46.258 42.8004 44.398 43.2204 42.598 43.2204ZM48.178 35.0004C49.098 35.0004 49.998 34.7804 50.878 34.3404C51.758 33.9004 52.698 33.2804 53.698 32.4804L55.618 20.1204C55.098 20.0004 54.478 19.9004 53.758 19.8204C53.038 19.7404 52.278 19.7004 51.478 19.7004C49.958 19.7004 48.818 20.1004 48.058 20.9004C47.338 21.7004 46.858 22.9404 46.618 24.6204L45.658 30.8604C45.458 32.1804 45.538 33.2004 45.898 33.9204C46.298 34.6404 47.058 35.0004 48.178 35.0004Z" fill="#FC9EAC"/>
<path d="M0.676 42.5006C0.156 42.5006 -0.064 42.2206 0.016 41.6606L5.956 4.04062C6.036 3.48062 6.356 3.20062 6.916 3.20062H19.396C24.156 3.20062 27.676 3.94062 29.956 5.42062C32.276 6.86062 33.436 9.06062 33.436 12.0206C33.436 14.5006 32.756 16.5806 31.396 18.2606C30.036 19.9406 28.156 21.0806 25.756 21.6806V21.8606C27.916 22.3006 29.536 23.2006 30.616 24.5606C31.736 25.8806 32.296 27.6006 32.296 29.7206C32.296 32.6406 31.616 35.0606 30.256 36.9806C28.896 38.8606 26.856 40.2606 24.136 41.1806C21.456 42.0606 18.096 42.5006 14.056 42.5006H0.676ZM10.756 34.5206H15.676C17.996 34.5206 19.716 34.1606 20.836 33.4406C21.956 32.7206 22.516 31.4806 22.516 29.7206C22.516 28.4806 22.076 27.5806 21.196 27.0206C20.316 26.4606 18.836 26.1806 16.756 26.1806H12.076L10.756 34.5206ZM13.216 19.0406H17.536C18.776 19.0406 19.836 18.8806 20.716 18.5606C21.596 18.2406 22.256 17.7406 22.696 17.0606C23.136 16.3806 23.356 15.5206 23.356 14.4806C23.356 13.2406 22.996 12.3806 22.276 11.9006C21.556 11.4206 20.296 11.1806 18.496 11.1806H14.476L13.216 19.0406Z" fill="#FC9EAC"/>
</svg>
